<svg width="42" height="42" viewBox="0 0 42 42" fill="none" xmlns="http://www.w3.org/2000/svg">
<path d="M21 41C24.9556 41 28.8224 39.827 32.1114 37.6294C35.4004 35.4317 37.9638 32.3082 39.4776 28.6537C40.9913 24.9991 41.3874 20.9778 40.6157 17.0982C39.844 13.2186 37.9392 9.65494 35.1421 6.85789C32.3451 4.06084 28.7814 2.15602 24.9018 1.38432C21.0222 0.612613 17.0009 1.00863 13.3463 2.52238C9.69181 4.03613 6.56824 6.59961 4.37061 9.88859C2.17298 13.1776 1 17.0444 1 21C1 26.3043 3.10714 31.3914 6.85786 35.1421C10.6086 38.8929 15.6957 41 21 41Z" stroke="#FCFCFC" stroke-width="1.5"/>
<path d="M7.55957 20.1186C7.62957 19.6386 7.66957 19.1186 7.76957 18.6686C8.1837 16.2993 9.23026 14.0859 10.7986 12.2623C12.367 10.4387 14.3989 9.07261 16.6796 8.30858C18.8923 7.51788 21.2815 7.35864 23.5796 7.84862H23.7296C23.8307 7.86832 23.9269 7.90769 24.0128 7.96459C24.0987 8.02148 24.1725 8.0948 24.2301 8.18023C24.2877 8.26566 24.3279 8.36156 24.3484 8.46251C24.3689 8.56347 24.3693 8.66749 24.3496 8.76861C24.3299 8.86972 24.2904 8.96599 24.2336 9.05187C24.1767 9.13775 24.1034 9.21158 24.018 9.26916C23.9325 9.32673 23.8366 9.36688 23.7357 9.38738C23.6347 9.40788 23.5307 9.4083 23.4296 9.3886C22.5277 9.20755 21.6094 9.12041 20.6896 9.12859C17.9722 9.21439 15.3656 10.2258 13.3015 11.9953C11.2374 13.7648 9.83958 16.1863 9.33957 18.8586C9.04933 20.449 9.08954 22.0821 9.4577 23.6562C9.82587 25.2304 10.5141 26.7119 11.4796 28.0086C11.5639 28.135 11.6686 28.2466 11.7896 28.3386C11.7896 28.1786 11.7896 28.0086 11.7196 27.8486C11.6918 27.7379 11.6878 27.6224 11.7078 27.51C11.7277 27.3976 11.7712 27.2906 11.8355 27.1962C11.8997 27.1018 11.9831 27.022 12.0803 26.9621C12.1776 26.9022 12.2864 26.8635 12.3996 26.8486C12.5073 26.8362 12.6165 26.846 12.7203 26.8776C12.824 26.9091 12.9202 26.9617 13.0028 27.0321C13.0853 27.1025 13.1525 27.1891 13.2001 27.2866C13.2478 27.384 13.2748 27.4903 13.2796 27.5986C13.4196 28.5286 13.5496 29.4486 13.6796 30.3786C13.7996 31.1386 13.3696 31.5486 12.6096 31.3786L9.60957 30.7986C9.49914 30.7885 9.39207 30.7552 9.29534 30.701C9.1986 30.6468 9.11436 30.5729 9.0481 30.484C8.98183 30.3951 8.93503 30.2932 8.91073 30.185C8.88643 30.0768 8.88518 29.9647 8.90707 29.856C8.92895 29.7473 8.97347 29.6444 9.03774 29.554C9.10201 29.4636 9.18458 29.3878 9.28009 29.3315C9.37559 29.2751 9.48189 29.2395 9.59207 29.227C9.70224 29.2144 9.81383 29.2252 9.91957 29.2586L10.5896 29.3786L10.4096 29.1286C8.8117 27.0533 7.84956 24.5593 7.63957 21.9486C7.64526 21.872 7.64526 21.7952 7.63957 21.7186L7.55957 20.1186Z" fill="#FCFCFC"/>
<path d="M20.3591 34.4364L18.7591 34.2264C18.5839 34.2037 18.4103 34.1702 18.2391 34.1264C18.138 34.1073 18.0416 34.0686 17.9555 34.0123C17.8694 33.956 17.7952 33.8833 17.7371 33.7983C17.6199 33.6267 17.5757 33.4156 17.6141 33.2114C17.6526 33.0072 17.7706 32.8266 17.9422 32.7094C18.1138 32.5922 18.3249 32.5479 18.5291 32.5864C19.1391 32.6564 19.7591 32.7764 20.3691 32.8164C22.8594 32.9849 25.3361 32.3314 27.4191 30.9564C28.7881 30.0693 29.9594 28.9093 30.8597 27.549C31.76 26.1886 32.37 24.6572 32.6516 23.0504C32.9331 21.4436 32.8802 19.7961 32.4961 18.2106C32.1119 16.6252 31.4049 15.1361 30.4191 13.8364L30.2191 13.5864C30.2191 13.7664 30.2191 13.8664 30.2191 13.9664C30.2441 14.1723 30.2441 14.3805 30.2191 14.5864C30.1689 14.7471 30.0674 14.8869 29.9301 14.9845C29.7929 15.082 29.6274 15.1318 29.4591 15.1264C29.2866 15.1271 29.1192 15.0676 28.9859 14.9581C28.8526 14.8485 28.7618 14.6958 28.7291 14.5264C28.6191 13.9664 28.5491 13.4064 28.4691 12.8464C28.3891 12.2864 28.3491 11.9464 28.2791 11.4964C28.2363 11.3574 28.2322 11.2093 28.2673 11.0682C28.3023 10.927 28.3752 10.7981 28.478 10.6953C28.5809 10.5924 28.7098 10.5196 28.8509 10.4845C28.9921 10.4495 29.1401 10.4536 29.2791 10.4964C30.2791 10.7064 31.3491 10.8964 32.3891 11.0964C32.5041 11.1087 32.6151 11.1455 32.7147 11.2043C32.8143 11.2631 32.9001 11.3425 32.9664 11.4373C33.0327 11.532 33.078 11.6398 33.0992 11.7535C33.1203 11.8672 33.1169 11.9841 33.0891 12.0964C33.0623 12.2009 33.0152 12.299 32.9504 12.3852C32.8856 12.4714 32.8044 12.544 32.7115 12.5988C32.6186 12.6536 32.5158 12.6896 32.409 12.7046C32.3022 12.7196 32.1935 12.7134 32.0891 12.6864L31.4591 12.5664C31.7091 12.9264 31.9591 13.2564 32.1791 13.5664C33.3778 15.3652 34.1231 17.4274 34.3514 19.5769C34.5798 21.7264 34.2843 23.8992 33.4903 25.9097C32.6964 27.9202 31.4275 29.7085 29.7921 31.122C28.1567 32.5354 26.2034 33.532 24.0991 34.0264C23.3691 34.1964 22.6191 34.2564 21.8791 34.3664H21.6791L20.3591 34.4364Z" fill="#FCFCFC"/>
<path d="M29.1798 21.0454C29.1798 22.6657 28.6992 24.2496 27.7988 25.5966C26.8985 26.9437 25.6188 27.9934 24.1217 28.613C22.6246 29.2326 20.9773 29.3942 19.3883 29.0773C17.7994 28.7605 16.3401 27.9795 15.1951 26.8331C14.0501 25.6867 13.2708 24.2265 12.956 22.6371C12.6411 21.0477 12.8047 19.4007 13.4261 17.9043C14.0475 16.408 15.0988 15.1296 16.447 14.2308C17.7951 13.3321 19.3796 12.8535 20.9998 12.8555C23.1694 12.8608 25.2484 13.7256 26.7816 15.2607C28.3148 16.7958 29.1772 18.8758 29.1798 21.0454" fill="#FCFCFC"/>
<path d="M20.9994 14.4375C19.6896 14.4336 18.4082 14.8183 17.3171 15.5428C16.226 16.2674 15.3744 17.2993 14.87 18.508C14.3656 19.7167 14.2311 21.0478 14.4834 22.333C14.7358 23.6182 15.3637 24.7997 16.2877 25.7279C17.2117 26.6562 18.3903 27.2895 19.6744 27.5476C20.9584 27.8058 22.2902 27.6773 23.5012 27.1784C24.7122 26.6795 25.7479 25.8325 26.4774 24.7448C27.2069 23.657 27.5974 22.3773 27.5994 21.0675C27.5994 19.3143 26.905 17.6325 25.6681 16.39C24.4312 15.1475 22.7526 14.4455 20.9994 14.4375" fill="#FCFCFC"/>
<path d="M20.2094 17.2681V16.6682C20.2054 16.5609 20.2227 16.454 20.2604 16.3535C20.298 16.2531 20.3553 16.1611 20.4287 16.0829C20.5022 16.0048 20.5905 15.9421 20.6885 15.8983C20.7864 15.8546 20.8921 15.8307 20.9994 15.8281C21.107 15.8293 21.2133 15.8523 21.3119 15.8956C21.4105 15.9388 21.4994 16.0016 21.5731 16.08C21.6469 16.1585 21.7041 16.2509 21.7412 16.352C21.7784 16.453 21.7948 16.5606 21.7894 16.6682V17.2481C22.0194 17.2981 22.2394 17.3281 22.4594 17.3881C22.9019 17.5022 23.3037 17.7377 23.6194 18.0681C23.708 18.1352 23.7814 18.2201 23.8349 18.3175C23.8885 18.4149 23.9208 18.5224 23.93 18.6331C23.9391 18.7438 23.9248 18.8553 23.8879 18.9601C23.8511 19.0649 23.7926 19.1607 23.7162 19.2414C23.6397 19.322 23.5472 19.3857 23.4445 19.4282C23.3418 19.4706 23.2314 19.4909 23.1203 19.4878C23.0093 19.4847 22.9001 19.4581 22.8 19.4099C22.6999 19.3617 22.6111 19.293 22.5394 19.2081C22.4191 19.0886 22.2751 18.9957 22.1166 18.9354C21.9581 18.8751 21.7887 18.8488 21.6194 18.8582H20.2494C20.1512 18.8484 20.0522 18.8592 19.9585 18.8899C19.8648 18.9206 19.7785 18.9704 19.7051 19.0363C19.6317 19.1021 19.5729 19.1825 19.5323 19.2723C19.4917 19.3622 19.4703 19.4595 19.4694 19.5581C19.4704 19.6571 19.4918 19.7548 19.5323 19.8452C19.5728 19.9355 19.6315 20.0164 19.7047 20.0831C19.7779 20.1497 19.864 20.2005 19.9577 20.2324C20.0514 20.2642 20.1507 20.2764 20.2494 20.2681C20.7794 20.2681 21.2494 20.2681 21.8194 20.2681C22.4201 20.227 23.0125 20.4262 23.4664 20.8219C23.9202 21.2176 24.1983 21.7774 24.2394 22.3781C24.2805 22.9788 24.0813 23.5713 23.6856 24.0251C23.2899 24.479 22.7301 24.757 22.1294 24.7981H21.7894V25.4182C21.7894 25.6277 21.7061 25.8286 21.558 25.9767C21.4098 26.1249 21.2089 26.2081 20.9994 26.2081C20.7898 26.2081 20.5889 26.1249 20.4407 25.9767C20.2926 25.8286 20.2094 25.6277 20.2094 25.4182V24.7981C19.6526 24.7998 19.1072 24.64 18.6394 24.3381C18.536 24.273 18.4489 24.1851 18.3847 24.0811C18.3206 23.977 18.2811 23.8597 18.2694 23.7381C18.2497 23.5977 18.2703 23.4546 18.3287 23.3254C18.3871 23.1962 18.481 23.0862 18.5994 23.0081C18.7198 22.9247 18.8628 22.88 19.0094 22.88C19.1559 22.88 19.2989 22.9247 19.4194 23.0081C19.72 23.19 20.0685 23.2771 20.4194 23.2581H21.6994C21.885 23.2581 22.0631 23.1844 22.1943 23.0531C22.3256 22.9218 22.3994 22.7438 22.3994 22.5581C22.3994 22.3725 22.3256 22.1944 22.1943 22.0632C22.0631 21.9319 21.885 21.8582 21.6994 21.8582C21.0532 21.8932 20.4056 21.8932 19.7594 21.8582C19.199 21.7808 18.6892 21.4925 18.3342 21.052C17.9793 20.6115 17.8058 20.0521 17.8494 19.4881C17.8774 18.9364 18.1065 18.414 18.4934 18.0197C18.8803 17.6254 19.3983 17.3865 19.9494 17.3481H20.1594" fill="#132D52"/>
</svg>
