<svg width="42" height="42" viewBox="0 0 42 42" fill="none" xmlns="http://www.w3.org/2000/svg">
<path d="M21 40.8985C24.9556 40.8985 28.8224 39.7255 32.1114 37.5279C35.4004 35.3302 37.9638 32.2067 39.4776 28.5521C40.9913 24.8976 41.3874 20.8763 40.6157 16.9967C39.844 13.117 37.9392 9.55336 35.1421 6.75631C32.3451 3.95926 28.7814 2.05444 24.9018 1.28274C21.0222 0.511035 17.0009 0.907109 13.3463 2.42086C9.69181 3.93461 6.56824 6.49809 4.37061 9.78707C2.17298 13.0761 1 16.9428 1 20.8985C1 26.2028 3.10714 31.2899 6.85786 35.0406C10.6086 38.7913 15.6957 40.8985 21 40.8985V40.8985Z" stroke="#FCFCFC" stroke-width="1.5"/>
<path d="M6.62988 22.4794L16.5299 14.4094L21.5299 17.9094L29.9999 10.2593L28.8199 9.00934L33.3399 8.60938L32.4499 12.8793L31.2699 11.6193L21.6899 20.2894L16.6099 16.7493L7.80988 23.9293L6.62988 22.4794Z" fill="#FCFCFC"/>
<path d="M9.61914 30.2081H12.3691V22.3281L9.61914 24.5781V30.2081Z" fill="#FCFCFC"/>
<path d="M15.3799 30.2064H18.1399V19.8364L16.6699 18.8164L15.3799 19.8664V30.2064Z" fill="#FCFCFC"/>
<path d="M21.1494 30.2087H23.8994V20.4688L21.7894 22.3787L21.1494 21.9387V30.2087Z" fill="#FCFCFC"/>
<path d="M26.9199 30.21H29.6699V15.25L26.9199 17.74V30.21Z" fill="#FCFCFC"/>
</svg>
