<svg width="42" height="42" viewBox="0 0 42 42" fill="none" xmlns="http://www.w3.org/2000/svg">
<path d="M21 41.0196C24.9556 41.0196 28.8224 39.8466 32.1114 37.6489C35.4004 35.4513 37.9638 32.3278 39.4776 28.6732C40.9913 25.0187 41.3874 20.9974 40.6157 17.1178C39.844 13.2381 37.9392 9.67445 35.1421 6.8774C32.3451 4.08035 28.7814 2.17554 24.9018 1.40383C21.0222 0.632128 17.0009 1.0282 13.3463 2.54196C9.69181 4.05571 6.56824 6.61918 4.37061 9.90817C2.17298 13.1971 1 17.0639 1 21.0196C1 26.3239 3.10714 31.411 6.85786 35.1617C10.6086 38.9124 15.6957 41.0196 21 41.0196V41.0196Z" stroke="#FCFCFC" stroke-width="1.5"/>
<path d="M15.499 10.5757H12.809C12.3233 10.5656 11.8506 10.7327 11.479 11.0457C11.3113 11.181 11.1752 11.3514 11.0802 11.5449C10.9852 11.7383 10.9336 11.9502 10.929 12.1657V30.4057C10.9328 30.6227 10.9841 30.8363 11.0791 31.0315C11.1741 31.2267 11.3106 31.3988 11.479 31.5357C11.8563 31.8374 12.326 31.9999 12.809 31.9957H29.169C29.6548 31.9981 30.1272 31.836 30.509 31.5357C30.6775 31.3988 30.814 31.2267 30.909 31.0315C31.004 30.8363 31.0552 30.6227 31.059 30.4057V12.1257C31.0544 11.9102 31.0028 11.6983 30.9078 11.5049C30.8128 11.3114 30.6767 11.1411 30.509 11.0057C30.1305 10.6982 29.6567 10.532 29.169 10.5357H26.489V12.0557C26.4906 12.2479 26.4482 12.438 26.365 12.6113C26.2818 12.7847 26.16 12.9366 26.009 13.0557C25.6817 13.3228 25.2716 13.4678 24.849 13.4657H17.139C16.7159 13.4713 16.3047 13.3259 15.979 13.0557C15.828 12.9366 15.7063 12.7847 15.6231 12.6113C15.5399 12.438 15.4974 12.2479 15.499 12.0557V10.5757ZM12.809 9.82568H15.999C16.1073 9.81719 16.2147 9.85099 16.2986 9.91998C16.3825 9.98897 16.4364 10.0878 16.449 10.1957V12.0957C16.4513 12.1797 16.4711 12.2622 16.5073 12.338C16.5435 12.4137 16.5952 12.4811 16.659 12.5357C16.8103 12.6538 16.9971 12.7173 17.189 12.7157H24.899C25.0879 12.7174 25.2716 12.6538 25.419 12.5357C25.4862 12.4834 25.5409 12.4168 25.5789 12.3406C25.617 12.2645 25.6375 12.1808 25.639 12.0957V10.1957C25.6516 10.0878 25.7055 9.98897 25.7894 9.91998C25.8734 9.85099 25.9807 9.81719 26.089 9.82568H29.219C29.9451 9.80863 30.6538 10.0496 31.219 10.5057C31.4692 10.7052 31.6723 10.9574 31.814 11.2443C31.9557 11.5312 32.0325 11.8458 32.039 12.1657V30.4057C32.0346 30.726 31.9587 31.0413 31.8169 31.3285C31.675 31.6157 31.4707 31.8675 31.219 32.0657C30.6583 32.5309 29.9474 32.7762 29.219 32.7557H12.809C12.0815 32.7708 11.3724 32.5262 10.809 32.0657C10.5602 31.8656 10.3586 31.6131 10.2186 31.3262C10.0786 31.0392 10.0036 30.7249 9.99902 30.4057V12.1257C10.0056 11.8068 10.0815 11.4932 10.2214 11.2065C10.3612 10.9199 10.5618 10.6671 10.809 10.4657C11.3759 10.0126 12.0834 9.77208 12.809 9.7857" fill="#FCFCFC"/>
<path d="M15.4995 12.1055H12.7995L12.4795 11.8455L12.7995 12.1055V30.1055L12.4795 30.3755L12.7995 30.1155H29.1895L29.4995 30.3855L29.1895 30.1155V12.1155L29.4995 11.8555L29.1895 12.1155H26.4895C26.4761 12.2905 26.4265 12.4609 26.3438 12.6158C26.2612 12.7707 26.1474 12.9068 26.0095 13.0155C25.6812 13.2798 25.271 13.4213 24.8495 13.4155H17.1395C16.7175 13.4248 16.3061 13.2829 15.9795 13.0155C15.8416 12.9068 15.7278 12.7707 15.6452 12.6158C15.5626 12.4609 15.513 12.2905 15.4995 12.1155V12.1055ZM12.8095 11.3655H15.9995C16.1078 11.357 16.2152 11.3908 16.2991 11.4598C16.383 11.5288 16.4369 11.6276 16.4495 11.7355V12.0555C16.4506 12.1382 16.47 12.2197 16.5063 12.2941C16.5426 12.3684 16.5949 12.4338 16.6595 12.4855C16.8108 12.6036 16.9976 12.6671 17.1895 12.6655H24.8995C25.0884 12.6672 25.2721 12.6036 25.4195 12.4855C25.4871 12.4358 25.5421 12.3711 25.5803 12.2964C25.6185 12.2218 25.6387 12.1393 25.6395 12.0555V11.7355C25.6521 11.6276 25.706 11.5288 25.7899 11.4598C25.8738 11.3908 25.9812 11.357 26.0895 11.3655H29.2195C29.4543 11.3662 29.6825 11.4435 29.8695 11.5855C29.9427 11.6492 30.0018 11.7274 30.0431 11.8152C30.0844 11.903 30.107 11.9985 30.1095 12.0955V30.0955C30.1077 30.2 30.0824 30.3027 30.0357 30.3961C29.989 30.4895 29.922 30.5713 29.8395 30.6355V30.6355C29.6587 30.765 29.442 30.8349 29.2195 30.8355H12.8095C12.5759 30.836 12.3494 30.7546 12.1695 30.6055V30.6055C12.0962 30.5425 12.0376 30.4642 11.9978 30.3761C11.9581 30.288 11.9382 30.1922 11.9395 30.0955V12.0955C11.9415 11.9921 11.9658 11.8904 12.0107 11.7972C12.0555 11.704 12.1199 11.6215 12.1995 11.5555V11.5555C12.3753 11.4236 12.5897 11.3533 12.8095 11.3555" fill="#FCFCFC"/>
<path d="M24.8493 13.5755H17.1293C16.7042 13.5787 16.2936 13.4216 15.9793 13.1355C15.834 13.0109 15.7156 12.8579 15.6314 12.686C15.5471 12.514 15.4988 12.3268 15.4893 12.1355V9.67552C15.4919 9.47577 15.5369 9.2789 15.6214 9.09788C15.7059 8.91686 15.8279 8.75585 15.9793 8.62553C16.2946 8.34224 16.7054 8.18865 17.1293 8.19553H24.8493C25.2757 8.19099 25.6888 8.34411 26.0093 8.62553C26.1593 8.75635 26.2798 8.91767 26.3625 9.09873C26.4453 9.2798 26.4885 9.47643 26.4893 9.67552V12.0555C26.4816 12.2461 26.4351 12.4331 26.3525 12.6051C26.27 12.777 26.1532 12.9303 26.0093 13.0555C25.6903 13.3406 25.277 13.4973 24.8493 13.4955V13.5755ZM17.1293 12.6755H24.8493C25.0401 12.6788 25.2255 12.6111 25.3693 12.4855C25.438 12.4258 25.4931 12.352 25.5311 12.2693C25.569 12.1865 25.5888 12.0966 25.5893 12.0055V9.67552C25.5887 9.58593 25.5688 9.49756 25.5308 9.41642C25.4928 9.33528 25.4377 9.26334 25.3693 9.20554C25.2265 9.07714 25.0413 9.00591 24.8493 9.00553H17.1293C16.9376 9.00774 16.753 9.07873 16.6093 9.20554C16.5423 9.26458 16.4882 9.33678 16.4503 9.41764C16.4125 9.4985 16.3917 9.58626 16.3893 9.67552V12.0555C16.3921 12.1462 16.413 12.2354 16.4508 12.3178C16.4885 12.4002 16.5424 12.4743 16.6093 12.5356C16.754 12.6595 16.9387 12.727 17.1293 12.7256" fill="#FCFCFC"/>
<path d="M14.5496 16.668C14.4303 16.668 14.3158 16.7154 14.2314 16.7997C14.147 16.8841 14.0996 16.9986 14.0996 17.1179C14.0996 17.2382 14.1467 17.3537 14.2308 17.4397C14.3149 17.5257 14.4294 17.5753 14.5496 17.5779H21.9096C22.0299 17.5753 22.1443 17.5257 22.2284 17.4397C22.3126 17.3537 22.3596 17.2382 22.3596 17.1179C22.3596 16.9986 22.3122 16.8841 22.2278 16.7997C22.1434 16.7154 22.029 16.668 21.9096 16.668H14.5496Z" fill="#FCFCFC"/>
<path d="M14.5496 21.3281C14.4303 21.3281 14.3158 21.3755 14.2314 21.4599C14.147 21.5443 14.0996 21.6588 14.0996 21.7781C14.0996 21.8984 14.1467 22.0139 14.2308 22.0999C14.3149 22.1859 14.4294 22.2355 14.5496 22.2381H21.9096C22.0299 22.2355 22.1443 22.1859 22.2284 22.0999C22.3126 22.0139 22.3596 21.8984 22.3596 21.7781C22.3596 21.6588 22.3122 21.5443 22.2278 21.4599C22.1434 21.3755 22.029 21.3281 21.9096 21.3281H14.5496Z" fill="#FCFCFC"/>
<path d="M14.5496 25.9883C14.4405 26.0045 14.3409 26.0594 14.2689 26.1429C14.1968 26.2264 14.1572 26.333 14.1572 26.4433C14.1572 26.5536 14.1968 26.6602 14.2689 26.7437C14.3409 26.8272 14.4405 26.8821 14.5496 26.8983H21.9096C22.0187 26.8821 22.1183 26.8272 22.1903 26.7437C22.2623 26.6602 22.3019 26.5536 22.3019 26.4433C22.3019 26.333 22.2623 26.2264 22.1903 26.1429C22.1183 26.0594 22.0187 26.0045 21.9096 25.9883H14.5496Z" fill="#FCFCFC"/>
<path d="M26.9996 21.0858H25.6296V22.4658H26.9996V21.0858ZM25.1896 20.1758H27.4496C27.5096 20.1758 27.5689 20.1878 27.6242 20.211C27.6794 20.2342 27.7295 20.2682 27.7714 20.3111C27.8133 20.3539 27.8462 20.4048 27.8683 20.4605C27.8903 20.5163 27.9009 20.5759 27.8996 20.6358V22.9258C27.8996 23.0451 27.8522 23.1596 27.7678 23.244C27.6834 23.3284 27.569 23.3758 27.4496 23.3758H25.1796C25.0603 23.3758 24.9458 23.3284 24.8614 23.244C24.777 23.1596 24.7296 23.0451 24.7296 22.9258V20.6358C24.7283 20.5759 24.7389 20.5163 24.7609 20.4605C24.783 20.4048 24.8159 20.3539 24.8578 20.3111C24.8997 20.2682 24.9498 20.2342 25.0051 20.211C25.0603 20.1878 25.1197 20.1758 25.1796 20.1758" fill="#FCFCFC"/>
<path d="M26.9995 25.7481H25.6295V27.1281H26.9995V25.7481ZM25.1895 24.8381H27.4495C27.5698 24.8407 27.6842 24.8903 27.7683 24.9763C27.8524 25.0623 27.8995 25.1778 27.8995 25.2981V27.5781C27.8995 27.6984 27.8524 27.8139 27.7683 27.8999C27.6842 27.9859 27.5698 28.0355 27.4495 28.0381H25.1795C25.0592 28.0355 24.9448 27.9859 24.8607 27.8999C24.7766 27.8139 24.7295 27.6984 24.7295 27.5781V25.2881C24.7295 25.1679 24.7766 25.0524 24.8607 24.9664C24.9448 24.8804 25.0592 24.8307 25.1795 24.8281" fill="#FCFCFC"/>
<path d="M25.349 16.4766C25.3199 16.4243 25.2806 16.3783 25.2335 16.3413C25.1864 16.3043 25.1324 16.2772 25.0747 16.2613C25.0169 16.2455 24.9566 16.2414 24.8973 16.2491C24.8379 16.2569 24.7807 16.2764 24.729 16.3066C24.627 16.3689 24.5532 16.4684 24.5234 16.5841C24.4935 16.6999 24.5099 16.8227 24.569 16.9266L25.159 17.9266L25.549 17.6966L25.159 17.9266C25.2177 18.0295 25.3148 18.1052 25.429 18.137C25.5432 18.1688 25.6654 18.1543 25.769 18.0966V18.0966L27.859 16.8766C27.9617 16.8124 28.0356 16.711 28.0654 16.5937C28.0952 16.4763 28.0786 16.352 28.019 16.2466C27.99 16.1954 27.9511 16.1506 27.9045 16.1147C27.8579 16.0789 27.8046 16.0527 27.7477 16.0378C27.6909 16.0229 27.6316 16.0196 27.5734 16.0279C27.5152 16.0363 27.4593 16.0562 27.409 16.0866L25.679 17.0866L25.349 16.4766Z" fill="#FCFCFC"/>
</svg>
