<svg width="42" height="42" viewBox="0 0 42 42" fill="none" xmlns="http://www.w3.org/2000/svg">
<path d="M33.1697 16.4996C33.1723 16.4234 33.1899 16.3485 33.2215 16.2791C33.253 16.2097 33.2979 16.1472 33.3537 16.0952C33.4094 16.0432 33.4748 16.0027 33.5462 15.976C33.6176 15.9493 33.6936 15.9369 33.7697 15.9396C33.8872 15.9417 34.0014 15.9789 34.0976 16.0463C34.1939 16.1138 34.2677 16.2085 34.3098 16.3182C34.3519 16.4279 34.3603 16.5476 34.3339 16.6621C34.3075 16.7766 34.2475 16.8807 34.1616 16.9608C34.0757 17.041 33.9678 17.0937 33.8517 17.1122C33.7357 17.1307 33.6168 17.114 33.5102 17.0645C33.4037 17.0149 33.3143 16.9347 33.2537 16.8341C33.193 16.7334 33.1638 16.6169 33.1697 16.4996ZM33.0697 14.9596C32.9202 14.1039 32.6367 13.2771 32.2298 12.5096C31.3951 10.9709 30.0731 9.75303 28.4713 9.04714C26.8694 8.34124 25.0785 8.18735 23.3798 8.60964C22.6366 8.79163 21.9252 9.08494 21.2698 9.47963C20.5823 9.88111 19.9615 10.3872 19.4297 10.9796C18.7286 11.7673 18.1885 12.6845 17.8397 13.6796C17.3473 15.1233 17.2779 16.6778 17.6397 18.1596C17.8287 18.9037 18.1216 19.6173 18.5097 20.2796C18.9096 20.9625 19.4121 21.5797 19.9997 22.1096C20.9548 22.9791 22.1108 23.5978 23.364 23.9102C24.6172 24.2227 25.9283 24.219 27.1797 23.8996C27.9261 23.7177 28.6408 23.4244 29.2998 23.0296C29.9823 22.6253 30.5994 22.1195 31.1297 21.5296C32.0425 20.5462 32.6865 19.3443 32.9998 18.0396C33.0174 17.9654 33.0495 17.8953 33.0942 17.8335C33.139 17.7716 33.1955 17.7193 33.2605 17.6793C33.3255 17.6394 33.3978 17.6126 33.4732 17.6007C33.5486 17.5887 33.6255 17.5918 33.6997 17.6096C33.8502 17.6454 33.9806 17.7387 34.0629 17.8696C34.1452 18.0006 34.1728 18.1585 34.1397 18.3096C33.8354 19.6179 33.2437 20.8421 32.4075 21.8933C31.5712 22.9445 30.5115 23.7964 29.3051 24.3871C28.0988 24.9778 26.776 25.2926 25.4329 25.3086C24.0897 25.3246 22.7599 25.0415 21.5398 24.4796C20.7097 24.1008 19.9438 23.5947 19.2698 22.9796C18.3667 22.1739 17.6355 21.1944 17.1197 20.0996C16.3833 18.5075 16.1195 16.7373 16.3598 14.9996C16.4819 14.1247 16.7312 13.2724 17.0997 12.4696C17.9983 10.5321 19.5484 8.97138 21.4797 8.05959C23.0696 7.31533 24.8411 7.04791 26.5798 7.28963C28.367 7.54205 30.0383 8.32197 31.3797 9.52962C32.1509 10.2179 32.7941 11.0372 33.2797 11.9496C33.767 12.8241 34.105 13.7738 34.2797 14.7596C34.3032 14.913 34.2663 15.0696 34.1768 15.1964C34.0873 15.3232 33.9522 15.4103 33.7998 15.4396C33.6475 15.4628 33.4922 15.4257 33.367 15.336C33.2419 15.2463 33.1567 15.1112 33.1297 14.9596" fill="#FCFCFC"/>
<path d="M16.5798 25.058L19.0098 22.3581C19.1215 22.2511 19.2702 22.1914 19.4248 22.1914C19.5794 22.1914 19.7281 22.2511 19.8398 22.3581C19.9491 22.4686 20.0104 22.6177 20.0104 22.7731C20.0104 22.9285 19.9491 23.0776 19.8398 23.188L17.4098 25.8881C17.2981 25.995 17.1494 26.0547 16.9948 26.0547C16.8402 26.0547 16.6915 25.995 16.5798 25.8881C16.4705 25.7776 16.4092 25.6285 16.4092 25.4731C16.4092 25.3177 16.4705 25.1685 16.5798 25.058" fill="#FCFCFC"/>
<path d="M27.2289 10.7992C27.0839 10.7452 26.9659 10.6363 26.9004 10.496C26.8349 10.3557 26.8272 10.1952 26.8789 10.0492C26.919 9.94222 26.9897 9.84943 27.0823 9.78246C27.1749 9.7155 27.2852 9.67735 27.3994 9.67285C27.5135 9.66834 27.6265 9.69773 27.7241 9.7572C27.8216 9.81667 27.8995 9.90359 27.9478 10.0071C27.9961 10.1107 28.0128 10.2262 27.9957 10.3392C27.9786 10.4521 27.9285 10.5576 27.8517 10.6422C27.7749 10.7268 27.6749 10.7869 27.5641 10.8148C27.4533 10.8428 27.3367 10.8373 27.2289 10.7992V10.7992ZM25.7489 10.4793C24.8646 10.4118 23.9766 10.5479 23.1531 10.8773C22.3297 11.2066 21.5927 11.7205 20.9989 12.3793C20.4754 12.9583 20.0771 13.6392 19.829 14.3793C19.4607 15.4416 19.4086 16.5879 19.6789 17.6793C19.8187 18.2233 20.0341 18.7451 20.3189 19.2293C20.6139 19.7333 20.985 20.1886 21.4189 20.5793C22.0016 21.0979 22.6814 21.4955 23.4189 21.7493C24.4787 22.1145 25.622 22.1632 26.7089 21.8893C27.2579 21.7596 27.7839 21.5472 28.2689 21.2593C29.4394 20.5524 30.327 19.4598 30.7789 18.1693C31.1478 17.1071 31.1999 15.9605 30.9289 14.8693C30.794 14.3236 30.5783 13.8012 30.2889 13.3193C29.9914 12.8171 29.6207 12.3621 29.189 11.9693C29.0016 11.8043 28.8046 11.6507 28.5989 11.5093C28.4704 11.4203 28.3825 11.284 28.3543 11.1303C28.3262 10.9766 28.3602 10.8179 28.4489 10.6893C28.4928 10.6268 28.5486 10.5735 28.6131 10.5326C28.6777 10.4918 28.7496 10.464 28.8249 10.451C28.9001 10.438 28.9772 10.44 29.0517 10.4568C29.1262 10.4737 29.1966 10.5051 29.259 10.5492C29.5087 10.715 29.746 10.8989 29.9689 11.0993C30.6576 11.7254 31.218 12.4793 31.619 13.3193C32.1858 14.5428 32.3872 15.904 32.1989 17.2393C32.111 17.9297 31.9224 18.6035 31.6389 19.2393C31.3416 19.8741 30.9506 20.4607 30.479 20.9793C29.8495 21.6602 29.0872 22.2047 28.2389 22.5793C27.002 23.1616 25.6204 23.3651 24.268 23.164C22.9157 22.9629 21.653 22.3663 20.6389 21.4493C19.9436 20.8237 19.3853 20.0611 18.9989 19.2093C18.4237 17.9883 18.2185 16.6255 18.4089 15.2893C18.5974 13.9101 19.1927 12.6184 20.1189 11.5793C20.8433 10.7662 21.752 10.1386 22.7689 9.74926C23.7488 9.37 24.8015 9.21619 25.8489 9.29925C26.0028 9.31251 26.145 9.38636 26.2444 9.50451C26.3438 9.62266 26.3922 9.77543 26.3789 9.92925C26.3657 10.0831 26.2919 10.2254 26.1737 10.3248C26.0556 10.4242 25.9028 10.4725 25.7489 10.4593" fill="#FCFCFC"/>
<path d="M11.5493 29.0478L11.9793 29.4379C11.8841 29.543 11.8094 29.6651 11.7593 29.7978C11.7044 29.9975 11.7044 30.2083 11.7593 30.4079C11.7801 30.5114 11.8208 30.6099 11.8793 30.6979C11.9341 30.79 12.0014 30.8742 12.0793 30.9479C12.1865 31.0455 12.3124 31.1204 12.4493 31.1679C12.649 31.2228 12.8597 31.2228 13.0593 31.1679C13.1577 31.1456 13.2521 31.1084 13.3393 31.0578C13.4314 30.9989 13.5154 30.9284 13.5893 30.8479L16.6493 27.4579C16.7451 27.351 16.8167 27.2248 16.8593 27.0879C16.9191 26.8889 16.9191 26.6768 16.8593 26.4779C16.8386 26.3743 16.7979 26.2758 16.7393 26.1879C16.687 26.0969 16.6193 26.0157 16.5393 25.9479C16.4334 25.8485 16.3072 25.7735 16.1693 25.7279C15.9704 25.6681 15.7583 25.6681 15.5593 25.7279C15.4587 25.7575 15.3615 25.7977 15.2693 25.8479C15.1772 25.9027 15.093 25.9699 15.0193 26.0478L11.9993 29.4379L11.5693 29.0478L11.1293 28.6479L14.1893 25.2579C14.4359 24.9801 14.7482 24.7687 15.0976 24.6429C15.447 24.5171 15.8224 24.481 16.1893 24.5379C16.4084 24.566 16.6213 24.6302 16.8193 24.7279C17.0255 24.8188 17.2149 24.9439 17.3793 25.0979C17.6038 25.2948 17.7844 25.5366 17.9093 25.8078C18.095 26.2001 18.1611 26.6383 18.0993 27.0679C18.07 27.2854 18.0094 27.4976 17.9193 27.6979C17.8208 27.8998 17.6964 28.088 17.5493 28.2579L14.4893 31.6479C14.2924 31.8724 14.0505 32.0529 13.7793 32.1778C13.3871 32.3635 12.9489 32.4296 12.5193 32.3678C12.0756 32.3109 11.6602 32.1189 11.3293 31.8179C11.0545 31.5691 10.8451 31.2566 10.7195 30.9078C10.594 30.559 10.5561 30.1847 10.6093 29.8179C10.64 29.6038 10.7006 29.3951 10.7893 29.1979C10.8865 28.9921 11.0109 28.8003 11.1593 28.6279L11.5493 29.0478Z" fill="#FCFCFC"/>
<path d="M21 40.7813C24.9556 40.7813 28.8224 39.6083 32.1114 37.4107C35.4004 35.213 37.9638 32.0895 39.4776 28.435C40.9913 24.7804 41.3874 20.7591 40.6157 16.8795C39.844 12.9999 37.9392 9.43617 35.1421 6.63912C32.3451 3.84207 28.7814 1.93726 24.9018 1.16555C21.0222 0.393847 17.0009 0.789921 13.3463 2.30367C9.69181 3.81743 6.56824 6.3809 4.37061 9.66988C2.17298 12.9589 1 16.8256 1 20.7813C1 23.4077 1.51731 26.0084 2.52241 28.435C3.5275 30.8615 5.00069 33.0663 6.85786 34.9234C8.71504 36.7806 10.9198 38.2538 13.3463 39.2589C15.7728 40.264 18.3736 40.7813 21 40.7813V40.7813Z" stroke="#FCFCFC" stroke-width="1.5"/>
</svg>
